<?xml version="1.0" standalone="no"?>
<!DOCTYPE svg PUBLIC "-//W3C//DTD SVG 20010904//EN"
 "http://www.w3.org/TR/2001/REC-SVG-20010904/DTD/svg10.dtd">
<svg version="1.0" xmlns="http://www.w3.org/2000/svg"
 width="700.000000pt" height="700.000000pt" viewBox="0 0 700.000000 700.000000"
 preserveAspectRatio="xMidYMid meet">
<metadata>
Created by potrace 1.11, written by Peter Selinger 2001-2013
</metadata>
<g transform="translate(0.000000,700.000000) scale(0.100000,-0.100000)"
fill="#000000" stroke="none">
<path d="M3298 6995 c-2 -1 -48 -6 -102 -9 -55 -4 -102 -8 -105 -10 -3 -2 -35
-7 -70 -10 -35 -4 -85 -11 -110 -16 -25 -5 -57 -12 -71 -14 -81 -14 -199 -42
-300 -71 -131 -38 -370 -122 -385 -136 -5 -5 -15 -9 -23 -9 -17 0 -284 -133
-382 -190 -476 -278 -877 -658 -1176 -1113 -67 -101 -74 -113 -154 -257 -135
-244 -271 -600 -326 -853 -20 -90 -53 -272 -59 -322 -4 -33 -9 -69 -11 -80
-18 -95 -25 -533 -12 -695 7 -78 23 -210 33 -270 6 -32 24 -129 29 -155 22
-110 100 -390 125 -450 5 -11 14 -36 21 -55 7 -19 16 -44 20 -55 204 -496 466
-889 824 -1234 105 -101 161 -151 231 -207 28 -21 52 -41 55 -44 17 -19 222
-162 292 -205 323 -196 620 -326 950 -414 135 -36 344 -78 430 -87 35 -3 65
-8 68 -9 30 -18 541 -26 710 -12 381 33 750 127 1108 283 120 52 280 134 354
181 21 12 40 23 43 23 12 0 264 176 361 251 288 225 603 571 779 855 125 202
237 420 307 594 85 212 171 525 203 735 9 61 18 121 21 135 13 81 19 223 19
435 0 285 -7 365 -50 620 -9 50 -31 151 -50 225 -19 74 -37 144 -40 155 -23
95 -123 350 -200 512 -211 440 -547 871 -905 1163 -30 25 -57 47 -60 50 -10
11 -90 72 -161 123 -381 272 -845 476 -1306 572 -100 20 -248 43 -393 60 -56
7 -526 16 -532 10z m1447 -2249 c690 -690 1255 -1257 1255 -1261 0 -10 -577
-585 -587 -585 -4 0 -440 432 -967 959 l-959 959 -175 -173 c-96 -96 -172
-179 -170 -185 2 -6 268 -276 591 -598 l587 -587 -290 -290 c-159 -159 -294
-291 -299 -293 -6 -2 -277 262 -602 587 l-592 591 -173 -174 c-96 -95 -174
-178 -174 -182 0 -5 430 -439 955 -963 525 -525 955 -958 955 -963 0 -8 -574
-588 -583 -588 -7 0 -2507 2501 -2510 2511 -2 7 2472 2489 2481 2489 2 0 567
-564 1257 -1254z"/>
</g>
</svg>
